<svg width="37" height="94" viewBox="0 0 37 94" fill="none" xmlns="http://www.w3.org/2000/svg">
<path d="M16.25 94C12.5417 94 9.52083 93.125 7.1875 91.375C4.85417 89.625 3.125 87.25 2 84.25C0.916667 81.25 0.375 77.875 0.375 74.125L0.375 20C0.375 16.2917 1.10417 12.9375 2.5625 9.93749C4.02083 6.9375 6.10417 4.5625 8.8125 2.8125C11.5208 1.02083 14.7083 0.124996 18.375 0.124996C21.1667 0.124996 23.6667 0.645829 25.875 1.68749C28.125 2.6875 30.0208 4.10417 31.5625 5.9375C33.1458 7.77083 34.3333 9.89583 35.125 12.3125C35.9583 14.6875 36.375 17.25 36.375 20V34.125L22.875 34.125L22.875 20C22.875 18.1667 22.5417 16.5833 21.875 15.25C21.2083 13.9167 20.0417 13.25 18.375 13.25C16.75 13.25 15.5833 13.9583 14.875 15.375C14.2083 16.75 13.875 18.2917 13.875 20L13.875 75.25C13.875 77.0417 14.2292 78.625 14.9375 80C15.6458 81.3333 16.7917 82 18.375 82C20.0417 82 21.2083 81.3333 21.875 80C22.5417 78.625 22.875 77.0417 22.875 75.25L22.875 59.875H17.5V47.25H36.375L36.375 93H28.375L26.75 88C25.5833 89.875 24.0833 91.3542 22.25 92.4375C20.4583 93.4792 18.4583 94 16.25 94Z" fill="#FF9209"/>
</svg>
